<?xml version="1.0" encoding="utf-8"?>
<!-- Generator: Adobe Illustrator 16.0.0, SVG Export Plug-In . SVG Version: 6.00 Build 0)  -->
<!DOCTYPE svg PUBLIC "-//W3C//DTD SVG 1.1//EN" "http://www.w3.org/Graphics/SVG/1.1/DTD/svg11.dtd">
<svg version="1.1" id="Слой_1" xmlns="http://www.w3.org/2000/svg" xmlns:xlink="http://www.w3.org/1999/xlink" x="0px" y="0px"
	 width="422.36px" height="300.47px" viewBox="0 0 422.36 300.47" enable-background="new 0 0 422.36 300.47" xml:space="preserve">
<g id="Shape_4">
	<g>
		<path fill-rule="evenodd" clip-rule="evenodd" fill="#ffffff" d="M194.655,235.076l-3.783,1.866
			c-1.25,0.635-2.333,1.503-3.181,2.543c-0.888,1.103-1.531,2.364-1.926,3.738c-0.387,1.368-0.521,2.838-0.374,4.33
			c0.148,1.436,0.549,2.891,1.237,4.278l7.867,15.783c0.701,1.387,1.604,2.598,2.666,3.565c1.104,1.02,2.36,1.8,3.689,2.313
			c1.338,0.516,2.748,0.77,4.151,0.729c1.344-0.053,2.682-0.379,3.944-1.006l3.79-1.872l-16.543-33.178L194.655,235.076z
			 M200.824,232.008l1.538,3.08l16.536,33.175l6.965-3.455l-18.074-36.258L200.824,232.008z M328.967,200.836l-7.88-15.804
			c-0.683-1.38-1.597-2.581-2.654-3.563c-1.103-1.007-2.352-1.8-3.702-2.31c-1.317-0.513-2.733-0.769-4.13-0.713
			c-1.352,0.053-2.681,0.373-3.951,0.993l-80.475,40.032l18.073,36.271l80.475-40.031c1.256-0.638,2.32-1.512,3.169-2.546
			c0.887-1.089,1.551-2.354,1.937-3.723c0.396-1.375,0.53-2.849,0.382-4.329C330.057,203.673,329.655,202.226,328.967,200.836z
			 M313.827,209.376c-4.766,2.363-10.547,0.426-12.913-4.33c-2.372-4.743-0.436-10.518,4.339-12.9
			c4.753-2.362,10.539-0.411,12.899,4.333C320.524,201.244,318.588,207.009,313.827,209.376z M418.337,73.487
			c-1.098-6.619-3.154-13.071-6.17-19.245c-2.967-6.093-6.87-11.898-11.676-17.304c-4.814-5.405-10.188-10.01-15.988-13.787
			c-5.888-3.831-12.23-6.788-18.889-8.861c-6.663-2.082-13.654-3.271-20.833-3.498c-7.099-0.24-14.384,0.447-21.722,2.075
			L66.112,69.883c-7.059,1.562-13.688,3.898-19.784,6.929c-6.183,3.048-11.832,6.814-16.878,11.211
			c-5.038,4.397-9.471,9.442-13.213,15.036c-3.703,5.538-6.751,11.644-9.023,18.223c-2.279,6.561-3.643,13.147-4.123,19.661
			c-0.476,6.573-0.042,13.053,1.275,19.353c1.323,6.292,3.528,12.392,6.618,18.219c3.041,5.772,6.938,11.257,11.663,16.35l65,70.131
			c5.981,6.46,12.833,11.703,20.285,15.708c7.62,4.104,15.854,6.884,24.35,8.305c8.529,1.444,17.339,1.499,26.074,0.143
			c8.543-1.334,17.031-4.011,25.166-8.113l4.592-2.311l-0.042-0.039l0.482-0.262l7.6-3.816c-0.308-0.159-0.596-0.346-0.89-0.532
			c-0.474-0.342-0.928-0.7-1.363-1.109c-0.562-0.506-1.077-1.089-1.531-1.693c-0.461-0.614-0.863-1.264-1.217-1.975l-7.867-15.804
			c-0.348-0.695-0.628-1.407-0.842-2.136c-0.22-0.754-0.354-1.496-0.435-2.251c-0.052-0.478-0.067-0.967-0.052-1.445
			c0-0.255,0.012-0.516,0.04-0.781l-9.606,4.758h-0.014c-4.523,2.089-10.653,3.629-17.463,4.29
			c-6.209,0.608-12.987,0.476-19.67-0.675c-5.949-1.032-11.853-2.85-17.211-5.684c-4.806-2.53-9.184-5.866-12.807-10.136
			l-55.416-65.585c-2.419-2.88-4.431-5.896-6.001-9.012c-1.644-3.216-2.829-6.539-3.609-9.87c-0.863-3.796-1.203-7.601-1.008-11.365
			c0.2-3.823,0.916-7.572,2.124-11.165c1.224-3.603,2.948-7.034,5.121-10.203c2.139-3.122,4.725-5.999,7.725-8.528
			c2.749-2.303,5.823-4.331,9.232-6c3.268-1.594,6.85-2.862,10.694-3.75L334.02,44.266c3.504-0.807,7.206-1.115,10.935-0.928
			c3.743,0.16,7.521,0.833,11.13,1.961c23.728,7.447,36.38,28.321,29.842,48.815c-0.479,1.507-0.995,3.189-1.524,5.019
			c-0.492,1.721-1.075,3.721-1.663,5.832c-2.849,10.012-6.302,22.229-10.968,32.973c-4.674,10.786-15.086,21.935-22.758,26.014
			l-0.222,0.118l-0.066-0.038L320.366,178.1c0.212,0.132,0.427,0.278,0.641,0.44c0.396,0.268,0.769,0.58,1.136,0.926
			c0.562,0.516,1.075,1.075,1.532,1.696c0.461,0.607,0.862,1.261,1.216,1.96l7.861,15.804c0.352,0.701,0.633,1.428,0.848,2.149
			c0.22,0.742,0.354,1.494,0.434,2.249c0.039,0.415,0.067,0.835,0.054,1.235c0,0.192,0,0.393-0.015,0.591l25.74-12.964l0.481-0.254
			v0.055l0.542-0.282c0.361-0.2,0.716-0.379,1.022-0.553h0.014c9.818-5.352,24.796-13.742,33.198-27.674
			c2.49-3.871,4.692-8.042,6.565-12.492l11.541-37.052c2.813-6.681,4.645-13.46,5.507-20.193
			C419.546,86.908,419.427,80.114,418.337,73.487z M213.718,225.606l18.061,36.271l6.79-3.38l-18.067-36.267L213.718,225.606z
			 M268.465,181.377l9.13-4.506l22.792-11.252l1.591-0.78l0.561-1.695l25.421-76.277l33.593-7.533l7.645-1.883
			c1.391-10.583-14.744-20.866-22.056-19.304l-85.908,19.698l-11.301,2.582c7.772,2.123,16.208,8.19,20.906,19.281l0.04,0.146
			l26.736-6.167l-25.94,78.045L268.465,181.377z M225.755,154.936c-0.441,1.468-0.106,0.365-0.621,2.104
			c-2.125,7.286-5.246,17.91-9.345,20.8c-3.234,2.249-7.459,4.196-19.557,9.774c-3.836,1.776-16.416,7.87-24.958,11.866
			l-1.805,0.835l-11.074,32.851l11.13-5.783c6.408-3.217,21.268-10.385,28.19-13.581c15.167-7.033,29.712-13.76,37.21-19.999
			c4.311-3.59,7.492-8.795,10.026-14.548c2.394-5.487,4.185-11.365,5.788-16.757l9.752-32.098l0.026-0.014
			c0.862-2.904,1.364-5.852,1.522-8.823c0.162-2.969-0.038-5.932-0.593-8.807c-0.55-2.93-1.45-5.741-2.693-8.429
			c-1.223-2.65-2.788-5.153-4.659-7.482c-1.871-2.315-3.982-4.317-6.276-5.986c-2.359-1.708-4.845-3.035-7.434-3.962
			c-2.612-0.929-5.347-1.468-8.167-1.588c-2.76-0.135-5.534,0.146-8.267,0.847l-50.819,11.537l-0.12,0.015l-2.372,0.606
			l-68.623,15.555l-0.176,0.027c-6.542,1.775-11.608,5.192-15.364,9.231c-4.76,5.091-7.426,11.224-8.423,16.282l-1.276,6.546
			l6.49-1.595l74.846-18.398l-24.177,74.875l-0.012,0.051l-9.184,29.632l-0.969,3.117c7.726,4.69,17.25,6.32,24.188,6.117
			l0.969-2.969l7.76-23.937h0.013l30.084-91.732l40.464-9.342l0.094-0.027c0.689-0.161,1.317-0.24,1.885-0.228
			c0.542,0.015,1.063,0.12,1.59,0.307c0.509,0.188,1.024,0.456,1.512,0.822h0.014c0.535,0.399,1.062,0.914,1.557,1.521
			c0.516,0.641,0.929,1.287,1.244,1.948c0.308,0.661,0.521,1.354,0.667,2.068c0.142,0.727,0.182,1.481,0.142,2.25
			c-0.04,0.767-0.194,1.568-0.435,2.375h0.013l-9.765,32.097L225.755,154.936z"/>
	</g>
</g>
</svg>
