<?xml version="1.0" standalone="no"?>
<!DOCTYPE svg PUBLIC "-//W3C//DTD SVG 20010904//EN"
 "http://www.w3.org/TR/2001/REC-SVG-20010904/DTD/svg10.dtd">
<svg version="1.0" xmlns="http://www.w3.org/2000/svg"
 width="844.000000pt" height="844.000000pt" viewBox="0 0 844.000000 844.000000"
 preserveAspectRatio="xMidYMid meet">
<metadata>
Created by potrace 1.11, written by Peter Selinger 2001-2013
</metadata>
<g transform="translate(0.000000,844.000000) scale(0.100000,-0.100000)"
fill="#000000" stroke="none">
<path d="M6746 7002 c-2 -1 -34 -5 -72 -7 -86 -7 -116 -11 -179 -25 -27 -6
-61 -13 -75 -15 -24 -5 -51 -11 -87 -19 -52 -12 -111 -25 -136 -30 -15 -2 -35
-7 -45 -10 -9 -3 -28 -7 -42 -10 -14 -2 -54 -11 -90 -20 -36 -8 -76 -17 -90
-20 -14 -2 -74 -16 -135 -30 -60 -14 -125 -28 -144 -31 -19 -3 -37 -8 -41 -10
-4 -2 -22 -7 -41 -10 -19 -3 -41 -8 -49 -10 -8 -2 -26 -6 -40 -9 -14 -3 -56
-12 -95 -21 -38 -9 -77 -18 -85 -19 -8 -1 -28 -6 -45 -9 -16 -4 -39 -9 -50
-11 -11 -2 -50 -11 -86 -20 -37 -8 -80 -18 -95 -21 -16 -3 -38 -8 -49 -10 -11
-3 -29 -7 -40 -9 -11 -3 -49 -11 -85 -20 -36 -8 -77 -17 -93 -20 -15 -3 -35
-7 -45 -10 -9 -3 -28 -7 -42 -10 -14 -2 -72 -16 -130 -29 -58 -14 -118 -27
-135 -30 -16 -3 -48 -9 -70 -15 -22 -6 -53 -13 -70 -16 -16 -3 -50 -10 -75
-16 -45 -12 -53 -14 -120 -27 -19 -4 -37 -8 -40 -8 -3 -1 -18 -4 -35 -8 -16
-4 -39 -9 -50 -11 -11 -3 -49 -11 -85 -20 -36 -8 -77 -17 -93 -20 -15 -3 -35
-7 -45 -10 -9 -3 -28 -7 -42 -10 -14 -2 -44 -9 -68 -15 -24 -7 -55 -14 -70
-16 -15 -2 -36 -6 -47 -9 -105 -25 -154 -36 -178 -40 -15 -3 -35 -7 -45 -10
-9 -3 -28 -7 -42 -10 -14 -2 -54 -11 -90 -20 -36 -8 -76 -17 -90 -20 -14 -2
-47 -10 -75 -16 -27 -6 -57 -13 -65 -15 -8 -2 -26 -6 -40 -9 -14 -3 -36 -8
-50 -11 -14 -2 -63 -13 -110 -24 -47 -11 -96 -22 -110 -24 -14 -3 -44 -10 -68
-16 -24 -7 -55 -14 -70 -16 -15 -3 -45 -9 -67 -14 -22 -6 -53 -12 -70 -15 -16
-3 -45 -10 -63 -15 -18 -5 -35 -10 -37 -10 -5 1 -30 -5 -85 -17 -14 -3 -34 -7
-45 -9 -11 -3 -38 -9 -60 -14 -22 -5 -51 -12 -65 -14 -14 -3 -65 -14 -113 -26
-49 -12 -103 -23 -120 -26 -18 -3 -41 -9 -52 -12 -11 -4 -27 -8 -35 -9 -8 -1
-22 -4 -30 -7 -8 -2 -33 -7 -55 -11 -22 -5 -65 -14 -95 -21 -30 -8 -68 -16
-85 -19 -69 -11 -237 -57 -280 -76 -11 -5 -45 -19 -75 -31 -64 -25 -159 -72
-212 -106 -21 -13 -42 -23 -48 -23 -5 0 -10 -4 -10 -9 0 -5 -8 -12 -19 -16
-10 -3 -30 -16 -44 -28 -13 -12 -49 -41 -78 -64 -85 -66 -160 -147 -278 -298
-4 -6 -20 -33 -36 -60 -16 -28 -32 -52 -35 -55 -10 -10 -70 -132 -70 -144 0
-6 -5 -17 -12 -24 -6 -6 -13 -17 -14 -24 -1 -7 -14 -44 -27 -83 -25 -70 -51
-164 -61 -220 -3 -16 -9 -41 -12 -55 -13 -55 -13 -356 1 -435 45 -264 176
-542 336 -715 19 -21 51 -57 70 -79 20 -22 82 -90 140 -151 57 -61 115 -124
129 -139 14 -15 72 -78 130 -140 58 -63 118 -128 134 -145 15 -17 72 -78 126
-136 54 -58 110 -119 126 -136 37 -41 221 -239 254 -274 14 -15 68 -73 120
-130 181 -196 246 -257 365 -339 93 -65 246 -150 281 -157 6 -1 27 -9 45 -17
35 -16 127 -47 157 -52 9 -2 17 -4 17 -5 0 -1 11 -4 25 -6 14 -3 41 -9 60 -14
19 -5 55 -12 80 -15 25 -3 65 -8 90 -11 53 -6 274 -6 310 0 14 3 45 7 70 10
42 6 60 9 118 20 54 11 180 48 209 61 17 9 45 18 62 21 17 4 31 10 31 15 0 5
6 9 13 9 13 0 86 31 117 50 8 5 63 32 121 61 l106 52 -42 42 c-31 30 -66 91
-134 228 -91 184 -99 205 -103 258 -2 31 -5 31 -108 -22 -36 -18 -67 -34 -70
-34 -3 0 -14 -6 -25 -12 -26 -14 -151 -52 -194 -59 -18 -3 -43 -8 -55 -10 -59
-11 -120 -17 -208 -18 -281 -5 -525 61 -717 194 -72 50 -112 88 -191 180 -35
41 -69 80 -74 87 -6 6 -27 30 -46 54 -19 23 -66 79 -103 123 -38 45 -76 90
-86 101 -61 74 -227 271 -231 275 -5 4 -151 178 -285 339 -11 13 -26 30 -33
38 -8 7 -41 46 -74 86 -33 39 -79 94 -102 121 -65 77 -126 160 -126 173 0 6
-4 13 -8 15 -10 4 -58 107 -78 166 -46 134 -52 331 -15 460 5 17 8 32 6 32 -4
0 36 95 64 150 29 59 63 110 71 110 5 0 11 9 15 20 9 28 115 128 190 180 91
62 247 128 342 145 17 3 58 12 90 20 32 8 69 17 83 19 14 3 43 10 65 15 41 11
475 110 508 117 10 2 26 5 35 8 9 3 31 8 47 11 17 3 54 11 82 19 29 8 53 12
53 10 0 -3 8 0 18 5 9 5 33 12 52 15 19 3 94 20 165 36 72 17 182 42 245 56
63 14 149 34 190 44 41 10 86 21 100 23 14 3 64 14 112 26 91 21 129 30 163
36 11 2 30 6 43 9 58 15 69 17 92 22 14 3 102 23 195 45 94 23 180 43 193 45
13 3 81 18 150 35 70 16 168 39 217 50 50 11 98 22 108 25 27 7 60 14 87 19
14 3 40 9 58 14 17 5 32 8 32 6 0 -3 11 0 26 5 14 6 39 12 57 15 18 3 40 8 49
11 9 3 27 7 40 10 13 3 32 7 43 9 11 3 29 7 40 9 58 12 425 98 458 107 21 5
50 12 65 14 15 3 45 9 67 15 50 13 431 100 465 106 14 2 31 7 39 9 16 6 224
53 265 61 16 3 32 7 36 9 4 2 20 7 36 9 41 8 62 13 114 25 25 7 56 14 70 17
14 3 43 10 65 16 83 21 145 29 238 30 279 3 578 -145 746 -370 28 -37 51 -73
51 -79 0 -7 4 -13 10 -13 5 0 9 -3 8 -7 -1 -5 3 -17 9 -28 37 -69 65 -189 67
-285 2 -91 -8 -147 -54 -306 -23 -76 -43 -146 -45 -155 -2 -9 -14 -49 -26 -90
-13 -41 -24 -81 -25 -89 -1 -8 -13 -49 -28 -90 -15 -41 -27 -77 -28 -80 -1 -7
-2 -9 -46 -135 -22 -60 -51 -136 -65 -168 -14 -31 -26 -60 -26 -64 1 -3 -3 -9
-8 -12 -5 -3 -21 -27 -36 -53 -15 -26 -33 -53 -40 -60 -7 -7 -20 -25 -29 -39
-30 -46 -160 -179 -222 -225 -49 -37 -184 -115 -206 -119 -3 0 -107 -52 -231
-114 l-227 -114 35 -30 c45 -39 232 -414 235 -469 1 -21 4 -38 5 -38 7 0 588
293 593 299 5 6 44 28 105 59 16 9 46 26 65 39 19 13 43 29 54 36 10 6 24 17
30 22 6 6 31 23 55 39 39 25 215 194 249 239 36 47 112 170 144 232 39 76 65
146 128 355 23 74 44 142 47 150 3 8 7 20 8 26 2 5 21 70 44 142 23 73 44 141
46 152 2 10 11 34 19 52 40 87 90 277 103 390 9 80 9 265 0 343 -6 50 -22 131
-41 205 -22 86 -129 330 -148 338 -5 2 -8 10 -8 18 0 8 -4 14 -9 14 -5 0 -12
9 -16 20 -6 19 -103 150 -134 181 -9 9 -30 31 -47 50 -120 131 -306 266 -476
343 -78 36 -243 91 -300 101 -18 3 -51 10 -73 15 -77 16 -358 34 -369 22z"/>
<path d="M6885 6045 c-27 -8 -63 -16 -80 -18 -16 -3 -37 -7 -45 -10 -13 -5
-119 -30 -183 -42 -10 -2 -28 -7 -39 -11 -11 -3 -30 -7 -41 -9 -12 -1 -60 -12
-107 -23 -47 -12 -97 -24 -112 -27 -61 -11 -82 -16 -88 -20 -4 -2 -21 -7 -38
-10 -18 -3 -99 -21 -181 -40 -82 -19 -160 -36 -172 -39 -13 -2 -73 -16 -134
-31 -60 -14 -121 -28 -135 -31 -14 -3 -63 -14 -110 -25 -47 -11 -96 -22 -110
-25 -88 -16 -300 -70 -300 -76 0 -4 6 -8 13 -8 8 0 45 -16 84 -35 112 -57 220
-170 283 -295 12 -25 23 -46 25 -48 1 -1 15 2 31 7 16 5 65 17 109 26 44 9 91
21 105 26 14 4 39 10 55 13 17 2 62 12 100 21 39 9 81 19 94 21 14 3 29 8 34
11 6 3 8 2 5 -3 -5 -9 -318 -949 -323 -969 -1 -5 -5 -17 -8 -25 -8 -19 -76
-220 -81 -240 -3 -8 -5 -15 -6 -15 -1 0 -3 -8 -5 -17 -4 -23 -36 -121 -44
-133 -3 -5 -6 -14 -7 -20 -1 -5 -25 -79 -53 -164 -28 -85 -49 -157 -47 -159 3
-2 152 70 333 160 l328 163 110 330 c61 182 114 336 118 343 5 6 6 12 3 12 -3
0 16 60 41 133 25 72 47 139 49 147 2 8 15 49 30 90 14 41 27 82 29 90 5 18
73 218 82 240 3 8 7 20 9 27 1 7 12 42 24 78 18 55 26 66 48 71 15 3 41 10 57
15 17 4 41 10 55 13 14 2 77 16 140 30 63 15 124 28 135 30 11 2 47 11 80 19
33 8 78 18 100 23 56 10 53 9 143 33 45 11 84 21 87 21 11 0 -6 103 -23 134
-47 88 -145 174 -255 225 -62 28 -147 34 -212 16z"/>
<path d="M4540 5508 c-61 -10 -99 -17 -140 -28 -19 -5 -46 -11 -60 -13 -14 -3
-45 -10 -70 -17 -25 -7 -58 -14 -75 -17 -16 -2 -48 -9 -70 -15 -22 -5 -47 -11
-55 -13 -8 -2 -33 -8 -55 -13 -22 -6 -51 -13 -65 -16 -37 -7 -397 -88 -440
-99 -14 -4 -36 -9 -50 -12 -24 -4 -155 -34 -175 -39 -19 -5 -60 -15 -155 -36
-52 -12 -122 -28 -155 -35 -33 -8 -71 -16 -85 -19 -14 -3 -43 -10 -65 -15 -71
-17 -269 -63 -295 -67 -14 -3 -61 -13 -105 -24 -44 -10 -102 -23 -130 -29 -27
-6 -59 -14 -70 -16 -232 -52 -294 -73 -380 -130 -150 -100 -259 -269 -291
-450 -9 -51 -12 -70 -16 -85 -4 -18 -17 -20 185 26 4 1 8 2 10 4 1 1 9 3 17 5
18 3 113 27 600 147 201 49 372 91 380 93 8 2 83 20 165 40 83 20 158 39 168
41 10 2 27 6 38 9 62 17 60 24 28 -77 -17 -51 -31 -97 -33 -103 -2 -5 -6 -17
-9 -25 -3 -8 -17 -51 -30 -95 -14 -44 -60 -188 -103 -320 -43 -132 -79 -242
-79 -245 -3 -11 -26 -85 -90 -280 -72 -222 -184 -576 -190 -600 -2 -8 -28 -94
-58 -190 -30 -96 -57 -181 -59 -189 -4 -17 77 -61 167 -89 100 -32 160 -42
265 -46 l45 -1 46 140 c82 247 191 580 194 595 2 8 4 16 5 18 2 1 3 5 5 10 1
4 7 20 13 35 7 16 12 32 12 36 0 4 38 122 84 262 231 702 308 935 310 944 1 6
26 83 56 172 49 147 56 162 79 167 23 4 312 71 351 81 87 21 160 38 180 41 14
3 33 7 42 10 23 7 59 15 83 19 11 1 39 8 62 14 83 23 118 23 151 4 81 -49 105
-139 67 -249 -9 -27 -18 -56 -20 -64 -2 -8 -18 -60 -35 -115 -18 -55 -36 -113
-40 -130 -8 -28 -21 -71 -65 -215 -10 -30 -18 -59 -19 -65 -1 -5 -17 -57 -36
-115 -18 -58 -34 -107 -35 -110 -6 -26 -23 -68 -56 -136 -48 -101 -70 -117
-306 -230 -98 -46 -190 -91 -205 -100 -16 -8 -28 -12 -28 -7 0 4 -4 4 -8 -2
-6 -9 -111 -63 -130 -66 -4 -1 -34 -16 -67 -33 -33 -17 -62 -31 -65 -31 -3 -1
-48 -22 -100 -47 l-95 -46 -108 -322 c-59 -178 -106 -324 -104 -326 2 -2 37
14 77 36 108 59 411 207 720 351 125 59 499 246 568 285 24 13 50 31 58 39 9
8 20 15 25 15 16 0 120 95 159 146 52 68 140 237 140 269 0 8 5 15 10 15 6 0
9 3 8 8 -1 4 8 39 20 77 13 39 22 72 21 75 -2 3 3 15 10 28 7 13 14 31 16 40
2 9 21 71 41 137 20 66 37 125 39 130 1 6 5 17 8 25 3 8 19 62 36 120 17 58
36 119 42 135 5 17 12 38 15 48 6 27 12 47 29 112 20 71 26 203 13 283 -11 62
-16 87 -18 87 -1 0 -3 7 -5 15 -13 67 -87 197 -156 274 -88 97 -238 181 -344
192 -89 9 -122 10 -165 2z"/>
<path d="M6160 3643 c-8 -3 -232 -113 -497 -244 -266 -132 -486 -239 -489
-238 -4 0 -10 -3 -13 -8 -8 -10 -215 -113 -229 -113 -6 0 -12 -3 -14 -7 -1 -5
-92 -52 -200 -105 l-198 -98 54 -107 c29 -60 108 -221 177 -360 68 -138 128
-252 132 -252 5 -1 375 181 822 404 862 429 861 429 884 509 22 81 8 133 -91
332 -51 102 -107 202 -123 220 -52 57 -154 89 -215 67z m123 -276 c22 -12 50
-40 64 -64 79 -135 -18 -296 -173 -288 -136 7 -221 156 -158 277 51 98 168
131 267 75z"/>
<path d="M4328 2738 l-57 -30 18 -37 c10 -20 30 -61 45 -93 15 -31 30 -59 34
-63 4 -4 7 -10 7 -13 0 -4 58 -123 129 -264 l128 -257 64 32 c35 17 64 36 64
41 0 6 -70 151 -155 322 -85 172 -155 318 -155 323 0 6 -4 11 -9 11 -5 0 -14
14 -20 30 -12 36 -20 36 -93 -2z"/>
<path d="M4079 2612 l-65 -35 178 -358 c99 -198 183 -359 188 -359 16 0 130
61 130 69 0 4 -3 11 -7 15 -5 4 -8 11 -9 14 0 11 -321 649 -336 671 -13 18
-16 18 -79 -17z"/>
<path d="M3839 2495 c-90 -47 -133 -113 -132 -205 0 -60 -1 -57 67 -195 137
-283 146 -297 222 -334 63 -32 122 -31 197 4 31 14 57 27 57 28 0 1 -31 65
-70 142 -38 77 -70 146 -70 153 0 6 -3 12 -7 12 -9 0 -33 48 -33 66 0 7 -3 14
-7 16 -5 2 -45 78 -91 171 -46 92 -84 167 -85 167 -1 -1 -22 -12 -48 -25z"/>
</g>
</svg>
